<svg width="30" height="48" viewBox="0 0 30 48" fill="none" xmlns="http://www.w3.org/2000/svg">
<path d="M29.2246 22.404L0.813025 0.108142C0.738785 0.0494183 0.649564 0.0129239 0.55561 0.00284987C0.461656 -0.00722414 0.36678 0.00953089 0.281877 0.0511911C0.196974 0.0928513 0.125488 0.157727 0.0756285 0.238367C0.0257688 0.319008 -0.000442511 0.412142 5.65223e-06 0.507075V5.40191C5.65223e-06 5.71219 0.144963 6.0098 0.384457 6.19977L23.0734 23.9997L0.384457 41.7997C0.138661 41.9897 5.65223e-06 42.2873 5.65223e-06 42.5976V47.4924C5.65223e-06 47.9167 0.485296 48.151 0.813025 47.8913L29.2246 25.5955C29.4661 25.4062 29.6614 25.1641 29.7958 24.8876C29.9302 24.6111 30 24.3074 30 23.9997C30 23.692 29.9302 23.3884 29.7958 23.1119C29.6614 22.8354 29.4661 22.5933 29.2246 22.404Z" fill="white"/>
</svg>
