<svg width="31" height="49" viewBox="0 0 31 49" fill="none" xmlns="http://www.w3.org/2000/svg">
<path d="M1.75781 26.2571L30.1694 48.553C30.2436 48.6117 30.3329 48.6482 30.4268 48.6583C30.5208 48.6684 30.6156 48.6516 30.7005 48.6099C30.7854 48.5683 30.8569 48.5034 30.9068 48.4228C30.9567 48.3421 30.9829 48.249 30.9824 48.1541V43.2592C30.9824 42.9489 30.8375 42.6513 30.598 42.4614L7.90903 24.6614L30.598 6.86143C30.8438 6.67147 30.9824 6.37385 30.9824 6.06357V1.16874C30.9824 0.744475 30.4971 0.510182 30.1694 0.769804L1.75781 23.0657C1.51633 23.2549 1.32098 23.497 1.18662 23.7735C1.05226 24.05 0.982421 24.3537 0.982421 24.6614C0.982421 24.9691 1.05226 25.2728 1.18662 25.5493C1.32098 25.8258 1.51633 26.0679 1.75781 26.2571Z" fill="white"/>
</svg>
