<svg width="130" height="100" viewBox="0 0 130 100" fill="none" xmlns="http://www.w3.org/2000/svg">
<path d="M11.5411 91.3797C4.03174 83.3809 0 74.4096 0 59.8669C0 34.2765 17.9132 11.3402 43.9628 0L50.4733 10.0753C26.1589 23.2653 21.4054 40.3817 19.5098 51.1735C23.4249 49.1409 28.5503 48.4317 33.5736 48.8996C46.7259 50.1206 57.0933 60.949 57.0933 74.4096C57.0933 81.1966 54.4048 87.7056 49.6194 92.5047C44.834 97.3039 38.3435 100 31.5759 100C27.8333 99.9672 24.1346 99.1882 20.695 97.7082C17.2555 96.2283 14.1438 94.077 11.5411 91.3797ZM84.4479 91.3797C76.9385 83.3809 72.9067 74.4096 72.9067 59.8669C72.9067 34.2765 90.8199 11.3402 116.87 0L123.38 10.0753C99.0657 23.2653 94.3121 40.3817 92.4166 51.1735C96.3317 49.1409 101.457 48.4317 106.48 48.8996C119.633 50.1206 130 60.949 130 74.4096C130 81.1966 127.312 87.7056 122.526 92.5047C117.741 97.3039 111.25 100 104.483 100C100.74 99.9672 97.0413 99.1882 93.6018 97.7082C90.1622 96.2283 87.0505 94.077 84.4479 91.3797Z" fill="black" fill-opacity="0.08"/>
</svg>
