<svg width="110" height="56" viewBox="0 0 110 56" fill="none" xmlns="http://www.w3.org/2000/svg">
<g clip-path="url(#clip0)">
<path d="M68.8355 23.75V31.8493C68.8355 33.4094 68.0665 34.8634 65.5162 34.8634C63.5473 34.8634 62.7065 34.1012 61.905 32.6818L56.8369 35.5899C58.5139 38.8185 61.4313 40.5262 65.478 40.5262C70.7314 40.5262 74.6703 37.4406 74.6703 31.8493V23.1597L68.8355 23.75ZM68.8355 14.6003V20.8835L74.6692 20.3623V14.5969L68.8355 14.6003Z" fill="#0C0C0C"/>
<path d="M87.762 35.666C89.2572 35.666 90.5335 35.0895 91.262 34.2823L95.6398 36.7879C93.8528 39.2567 91.1531 40.5285 87.6879 40.5285C81.4524 40.5285 77.5864 36.3521 77.5864 30.9418C77.5864 25.5316 81.5242 21.3563 87.2872 21.3563C92.6147 21.3563 96.5525 25.4589 96.5525 30.9418C96.5552 31.6739 96.4815 32.4043 96.3324 33.1211H83.3853C84.0791 35.0076 85.7561 35.666 87.762 35.666ZM91.1207 29.0577C90.5416 26.951 88.897 26.1888 87.2559 26.1888C85.177 26.1888 83.7919 27.2058 83.2811 29.0577H91.1207Z" fill="#0C0C0C"/>
<path d="M106.033 27.0917V33.519C106.033 35.0802 107.382 35.2255 109.79 35.0802V40.0189C102.642 40.7442 100.563 38.6029 100.563 33.519V27.0917H97.6445V21.8636H100.563V18.4136L106.033 16.7797V21.8636H109.79V27.0917H106.033Z" fill="#0C0C0C"/>
<path d="M37.2085 14.7954C38.9298 13.5701 40.9384 12.8054 43.0417 12.5747C45.145 12.344 47.2726 12.655 49.2206 13.4779C51.1686 14.3008 52.8716 15.608 54.1665 17.2742C55.4614 18.9405 56.3048 20.9099 56.6158 22.9938L54.8068 23.176C54.4614 20.9916 53.4318 18.9717 51.8648 17.4045C50.2978 15.8374 48.2736 14.8032 46.0812 14.4495L45.8959 15.6026C48.0109 15.9475 49.9438 17.0021 51.374 18.5914C52.5678 19.9103 53.354 21.5443 53.6382 23.2971L44.6566 24.1977L37.2085 14.7954ZM53.7494 25.3162C53.6817 26.5394 53.3726 27.7375 52.8398 28.8418C52.3069 29.9461 51.5607 30.935 50.6438 31.7521C49.7269 32.5691 48.6572 33.1983 47.496 33.6036C46.3347 34.0089 45.1046 34.1824 43.876 34.1142C43.409 34.0894 42.9444 34.03 42.4862 33.9366L44.8512 25.345L53.7517 24.4548C53.7644 24.7431 53.7644 25.0337 53.7494 25.3208V25.3162ZM37.4193 31.0216C36.5986 30.1102 35.9662 29.0467 35.5584 27.8919C35.1505 26.7371 34.9751 25.5136 35.0422 24.2914C35.1094 23.0691 35.4176 21.8719 35.9495 20.7683C36.4813 19.6647 37.2264 18.6761 38.142 17.8592L43.7475 24.9426L41.3582 33.6345C39.8394 33.1196 38.4809 32.2208 37.4158 31.0262L37.4193 31.0216ZM54.7465 36.3131C52.8908 37.9717 50.66 39.1593 48.244 39.7748C45.828 40.3904 43.2985 40.4156 40.8706 39.8485L41.3976 37.9228C44.7398 38.6869 48.2488 38.1568 51.213 36.4399L50.6223 35.4298C47.9302 36.9917 44.7435 37.4795 41.7045 36.7951L42.1816 35.0655C43.6712 35.3845 45.2125 35.3781 46.6994 35.0468C48.1863 34.7155 49.5833 34.0672 50.7943 33.1466C52.0052 32.2259 53.0013 31.0548 53.7138 29.7139C54.4263 28.373 54.8383 26.8943 54.9214 25.3796C54.9423 25.0337 54.9423 24.6808 54.9284 24.3418L56.7339 24.1619C56.819 25.7879 56.5805 27.4145 56.0321 28.9484L57.1358 29.3427C57.7458 27.6436 58.0077 25.8401 57.906 24.0385L59.8645 23.8437C60.0085 26.1726 59.6228 28.5038 58.736 30.6636C57.8493 32.8234 56.4844 34.7561 54.7431 36.3177L54.7465 36.3131ZM29.6295 29.5549L28.5721 30.0899C29.2881 32.2332 30.4396 34.2067 31.9551 35.8876L32.8318 35.1081C31.3821 33.5032 30.2907 31.6105 29.6295 29.5549ZM91.9328 18.8312C91.6756 18.5451 91.3431 18.3362 90.973 18.2284C90.6028 18.1205 90.2097 18.1179 89.8381 18.2208C89.4665 18.3237 89.1313 18.5281 88.8703 18.8108C88.6092 19.0935 88.4329 19.4433 88.3611 19.8206L64.0952 22.242C63.5812 18.2848 61.8724 14.5763 59.195 11.6072L58.3218 12.3878C60.8292 15.1747 62.4334 18.6502 62.9243 22.3597L60.9334 22.558C60.5951 20.0707 59.6937 17.6924 58.2975 15.6026L57.3177 16.2518C58.6094 18.1823 59.4413 20.381 59.7498 22.6802L57.7809 22.8785C57.4501 20.5844 56.5301 18.4142 55.11 16.5778C53.6899 14.7414 51.8178 13.3009 49.6748 12.3959C47.5318 11.4909 45.1904 11.1518 42.8773 11.4116C40.5641 11.6714 38.3574 12.5211 36.4707 13.8787L35.2384 12.3267C37.5266 10.6517 40.2344 9.6376 43.0641 9.39591C45.8937 9.15423 48.7355 9.69434 51.2767 10.9568L51.7967 9.90751C49.0562 8.54605 45.991 7.96551 42.9399 8.23005C39.8887 8.49459 36.9705 9.59392 34.5076 11.4065L33.2719 9.8464C36.2769 7.63196 39.88 6.36589 43.6154 6.21189L43.5691 5.04151C39.5851 5.20602 35.743 6.55998 32.5422 8.92739L28.0532 3.25423C28.3427 2.84932 28.476 2.35411 28.4287 1.85932C28.3814 1.36452 28.1567 0.903245 27.7956 0.559981C27.4346 0.216718 26.9614 0.0144397 26.4628 -0.0098053C25.9642 -0.0340503 25.4735 0.12136 25.0805 0.427963C24.6876 0.734567 24.4188 1.17184 24.3233 1.65969C24.2278 2.14755 24.312 2.65333 24.5605 3.0844C24.809 3.51548 25.2052 3.84299 25.6765 4.00695C26.1477 4.17092 26.6626 4.16036 27.1267 3.97721L31.6285 9.65845C31.4686 9.79336 31.3053 9.92827 31.1478 10.0701C28.075 12.8003 25.9348 16.4174 25.0258 20.4167C24.9655 20.6865 24.91 20.9564 24.8578 21.2239H26.0554C26.8709 17.0605 29.0945 13.3011 32.3558 10.5717L33.595 12.1318C33.4792 12.2241 33.3703 12.3198 33.2603 12.4155C30.6822 14.7093 28.8867 17.7464 28.1239 21.1039C28.0961 21.2354 28.0671 21.3622 28.0428 21.4937C27.9849 21.7739 27.9351 22.0506 27.8969 22.3343L28.0428 22.2882L29.1465 21.9549C29.7924 18.4838 31.6184 15.3398 34.3177 13.0508L35.5535 14.604C35.4863 14.6605 35.4226 14.7136 35.3577 14.7701C33.6347 16.3099 32.3371 18.264 31.5891 20.4455L32.6998 20.8249C33.4059 18.7743 34.6417 16.945 36.2831 15.5207L37.4054 16.9402C37.3903 16.954 37.3764 16.9644 37.359 16.9782C35.7318 18.4229 34.5982 20.3373 34.1162 22.4542C33.7447 24.0919 33.771 25.7942 34.1928 27.4198C34.6146 29.0454 35.4197 30.5474 36.5414 31.8011C37.7582 33.1607 39.3115 34.1793 41.0466 34.7553L40.5729 36.4849C38.8772 35.9397 37.3205 35.0346 36.0102 33.8322C34.6999 32.6298 33.6673 31.1586 32.9835 29.5203L31.8971 29.9711C32.6503 31.7736 33.789 33.3909 35.2339 34.7106C36.6788 36.0303 38.3953 37.0206 40.2637 37.6126L39.7333 39.5348C39.4657 39.4529 39.1982 39.3642 38.9353 39.265L38.5218 40.3604C38.8206 40.4757 39.1206 40.5703 39.4229 40.666L38.8936 42.5847C37.1915 42.0679 35.5731 41.3094 34.0884 40.3327L33.441 41.3163C35.0292 42.3612 36.7613 43.1711 38.5832 43.7205L36.5078 51.2524C36.0355 51.2621 35.5807 51.4323 35.2188 51.7347C34.857 52.0371 34.61 52.4537 34.5186 52.9151C34.4273 53.3766 34.4972 53.8553 34.7167 54.2718C34.9363 54.6883 35.2923 55.0175 35.7256 55.2048C36.1589 55.3922 36.6436 55.4264 37.0991 55.3017C37.5547 55.1771 37.9537 54.9011 38.23 54.5196C38.5063 54.1381 38.6433 53.674 38.6182 53.2043C38.5932 52.7346 38.4075 52.2876 38.0922 51.9374C37.9613 51.7903 37.809 51.6636 37.6405 51.5615L39.7124 44.0226C43.4532 44.9221 47.3752 44.7263 51.0068 43.4588L50.6223 42.3541C47.2163 43.5407 43.5395 43.7276 40.0298 42.8926L40.5533 40.9785C43.0937 41.578 45.74 41.5756 48.2793 40.9715C50.8187 40.3675 53.1802 39.1787 55.1741 37.5006C57.168 35.8225 58.7386 33.7021 59.7596 31.3097C60.7806 28.9174 61.2235 26.3199 61.0527 23.7261L63.0436 23.5277C63.366 28.0709 61.9954 32.5731 59.1939 36.1736L60.1204 36.8896C63.1077 33.0532 64.5654 28.2529 64.2134 23.4113L88.478 20.9898C88.5653 21.2087 88.6908 21.4105 88.8486 21.5859C89.2156 21.9931 89.7299 22.2385 90.2785 22.2682C90.8272 22.2978 91.3652 22.1092 91.7742 21.7439C92.1831 21.3786 92.4296 20.8665 92.4594 20.3203C92.4892 19.774 92.2997 19.2384 91.9328 18.8312ZM28.8929 24.4421C28.6392 24.4802 28.4227 24.509 28.4227 24.509L27.7208 24.2645C27.6828 25.4078 27.7628 26.5519 27.9594 27.6788L28.0451 27.6016L29.1847 27.8322C28.9613 26.7165 28.8634 25.5794 28.8929 24.4421Z" fill="#F39F07"/>
<path d="M18.6001 23.8388C18.6001 28.6679 14.6971 32.5527 9.66487 32.5527H5.83598V40.5412H0V15.125H9.66487C14.6971 15.125 18.6001 19.0097 18.6001 23.8388ZM12.7641 23.8388C12.7641 21.987 11.4519 20.571 9.66487 20.571H5.83598V27.1067H9.66487C11.4519 27.1067 12.7653 25.6907 12.7653 23.8388H12.7641Z" fill="#F39F07"/>
<path d="M31.9121 22.0227V28.1963C29.6502 27.8331 26.4409 28.7406 26.4409 32.3347V40.5412H20.9697V22.3871H26.4409V25.6157C27.1705 23.185 29.6131 22.0227 31.9121 22.0227Z" fill="#F39F07"/>
</g>
<defs>
<clipPath id="clip0">
<rect width="110" height="55.3733" fill="white"/>
</clipPath>
</defs>
</svg>
