<svg width="48" height="46" viewBox="0 0 48 46" fill="none" xmlns="http://www.w3.org/2000/svg">
<path d="M26.9661 0.967529V5.62693H45.8774C46.6901 5.62693 47.3489 6.28368 47.3489 7.09393V39.1641C47.3489 39.9742 46.6901 40.631 45.8774 40.631H26.9661V45.6816L0 40.9242V5.71654L26.9661 0.967622V0.967529ZM18.0178 20.5314C18.1086 19.0989 17.7674 17.6469 16.8008 16.7182C15.6506 15.6127 14.8837 15.4191 11.5953 15.5888L8.92398 15.7268V30.7678H11.6401V25.5463C16.651 25.9727 17.8124 23.0913 18.0177 20.5314H18.0178ZM14.8961 20.5314C14.7542 22.9755 13.6186 22.8726 11.64 22.8388V18.2941C13.8638 18.2159 14.8237 18.5196 14.8961 20.5314ZM43.6891 20.5182L38.5924 25.8174L33.2648 20.5182H37.2481V13.5561H26.9661V27.1669L31.0603 23.1506L37.1511 29.2267C37.1511 29.2267 31.1899 35.0226 31.0485 35.0226C30.9073 35.0226 26.9661 31.2758 26.9661 31.2758V39.0839H45.784V7.17404H26.9661V11.0418H39.7701V20.5181H43.6891V20.5182Z" fill="#F39F07"/>
</svg>
