<svg width="42" height="43" viewBox="0 0 42 43" fill="none" xmlns="http://www.w3.org/2000/svg">
<path d="M39.6219 37.8457H37.5366V6.56518C37.5366 6.01211 37.3169 5.48169 36.9258 5.0906C36.5347 4.69952 36.0043 4.47981 35.4512 4.47981C34.8981 4.47981 34.3677 4.69952 33.9766 5.0906C33.5856 5.48169 33.3659 6.01211 33.3659 6.56518V37.8457H29.1951V14.9066C29.1951 14.3536 28.9754 13.8231 28.5843 13.4321C28.1932 13.041 27.6628 12.8213 27.1098 12.8213C26.5567 12.8213 26.0263 13.041 25.6352 13.4321C25.2441 13.8231 25.0244 14.3536 25.0244 14.9066V37.8457H20.8537V23.2481C20.8537 22.695 20.6339 22.1646 20.2429 21.7735C19.8518 21.3824 19.3214 21.1627 18.7683 21.1627C18.2152 21.1627 17.6848 21.3824 17.2937 21.7735C16.9026 22.1646 16.6829 22.695 16.6829 23.2481V37.8457H12.5122V31.5896C12.5122 31.0365 12.2925 30.5061 11.9014 30.115C11.5103 29.7239 10.9799 29.5042 10.4268 29.5042C9.87376 29.5042 9.34334 29.7239 8.95225 30.115C8.56117 30.5061 8.34146 31.0365 8.34146 31.5896V37.8457H4.17073V2.39445C4.17073 1.84137 3.95102 1.31095 3.55994 0.919871C3.16886 0.528789 2.63844 0.309082 2.08537 0.309082C1.53229 0.309082 1.00187 0.528789 0.610789 0.919871C0.219707 1.31095 0 1.84137 0 2.39445V39.931C0 40.4841 0.219707 41.0145 0.610789 41.4056C1.00187 41.7967 1.53229 42.0164 2.08537 42.0164H39.6219C40.175 42.0164 40.7054 41.7967 41.0965 41.4056C41.4876 41.0145 41.7073 40.4841 41.7073 39.931C41.7073 39.378 41.4876 38.8475 41.0965 38.4565C40.7054 38.0654 40.175 37.8457 39.6219 37.8457Z" fill="#F39F07"/>
</svg>
