<svg width="40" height="41" viewBox="0 0 40 41" fill="none" xmlns="http://www.w3.org/2000/svg">
<path d="M19.8333 20.4674C25.2641 20.4674 29.6667 16.0649 29.6667 10.6341C29.6667 5.20331 25.2641 0.800781 19.8333 0.800781C14.4025 0.800781 10 5.20331 10 10.6341C10 16.0649 14.4025 20.4674 19.8333 20.4674Z" fill="#F39F07"/>
<path d="M35.3756 26.7608C31.2456 24.6466 25.8864 22.9258 19.6668 22.9258C13.4472 22.9258 8.08808 24.6466 3.95808 26.7608C2.75855 27.3786 1.75369 28.3167 1.05503 29.471C0.356368 30.6254 -0.00876484 31.9507 0.000159768 33.2999V40.1341H39.3335V33.2999C39.3335 30.5466 37.8339 28.0145 35.3756 26.7608Z" fill="#F39F07"/>
</svg>
