<svg width="53" height="39" viewBox="0 0 53 39" fill="none" xmlns="http://www.w3.org/2000/svg">
<path d="M51.8653 11.217C37.3924 -2.4513 14.8829 -2.4463 0.415729 11.217C-0.128322 11.7308 -0.138941 12.6008 0.387138 13.1338L3.18418 15.9672C3.68575 16.476 4.49284 16.4868 5.01402 15.9989C16.9341 4.84869 35.3453 4.84619 47.2678 15.9989C47.789 16.4868 48.5961 16.4751 49.0977 15.9672L51.8947 13.1338C52.42 12.6008 52.4093 11.7308 51.8653 11.217ZM26.1405 27.6587C23.2528 27.6587 20.9124 30.0484 20.9124 32.9969C20.9124 35.9454 23.2528 38.3351 26.1405 38.3351C29.0282 38.3351 31.3686 35.9454 31.3686 32.9969C31.3686 30.0484 29.0282 27.6587 26.1405 27.6587ZM42.6965 20.6865C33.281 12.1846 18.9894 12.1937 9.58454 20.6865C9.02088 21.1953 9.00291 22.0786 9.53797 22.6174L12.3514 25.4525C12.8415 25.9463 13.6306 25.9796 14.1526 25.5192C21.0104 19.4662 31.2861 19.4795 38.1276 25.5192C38.6496 25.9796 39.4387 25.9471 39.9288 25.4525L42.7422 22.6174C43.2781 22.0786 43.2593 21.1944 42.6965 20.6865Z" fill="#F39F07"/>
</svg>
